<svg xmlns="http://www.w3.org/2000/svg" width="22" height="16" viewBox="0 0 22 16">
    <g fill="#7D06E3" fill-rule="evenodd">
        <circle cx="14" cy="8" r="8" opacity=".04"/>
        <g fill-rule="nonzero">
            <path d="M11.765 2.215L6.117.022c-.076-.03-.158-.03-.234 0L.235 2.215c-.14.055-.235.2-.235.364 0 .164.093.31.234.365l5.648 2.21c.038.015.078.022.118.022.04 0 .08-.007.118-.022l5.648-2.21c.14-.054.234-.2.234-.365 0-.163-.094-.31-.235-.364zM11.023 7.309V3.882l-.746.28v3.147c-.225.136-.377.391-.377.684 0 .292.152.548.377.684v1.93c0 .217.167.393.373.393s.373-.176.373-.393v-1.93c.225-.136.377-.392.377-.684 0-.293-.152-.548-.377-.684z" transform="translate(0 3)"/>
            <path d="M6 6.073c-.123 0-.244-.021-.36-.063L2.4 4.853v1.586c0 .388.403.716 1.197.975.693.226 1.546.35 2.403.35s1.71-.124 2.403-.35C9.197 7.155 9.6 6.827 9.6 6.44V4.853L6.36 6.01c-.116.042-.237.063-.36.063z" transform="translate(0 3)"/>
        </g>
    </g>
</svg>
