<?xml version="1.0" encoding="UTF-8"?>
<svg width="44px" height="32px" viewBox="0 0 44 32" version="1.1" xmlns="http://www.w3.org/2000/svg" xmlns:xlink="http://www.w3.org/1999/xlink">
    <!-- Generator: Sketch 60 (88103) - https://sketch.com -->
    <title>Retail</title>
    <desc>Created with Sketch.</desc>
    <g id="Page-1" stroke="none" stroke-width="1" fill="none" fill-rule="evenodd">
        <g id="Homepage" transform="translate(-1149.000000, -1419.000000)" fill="#7D06E3">
            <g id="3" transform="translate(199.000000, 1091.000000)">
                <g id="images" transform="translate(341.000000, 168.000000)">
                    <g id="-4" transform="translate(560.000000, 0.000000)">
                        <g id="Retail" transform="translate(49.000000, 160.000000)">
                            <circle id="Oval" opacity="0.04" cx="28" cy="16" r="16"></circle>
                            <g id="supermarket" transform="translate(0.000000, 5.000000)" fill-rule="nonzero">
                                <path d="M9.18765733,16.8000365 C10.35074,16.8000365 11.2970264,17.7421116 11.2970264,18.9000182 C11.2970264,20.0581071 10.35074,21 9.18765733,21 C8.02439156,21 7.07810515,20.0581071 7.07810515,18.9000182 C7.07810515,17.7421116 8.02439156,16.8000365 9.18765733,16.8000365 Z M19.0782546,16.8000365 C20.2415204,16.8000365 21.1876237,17.7421116 21.1876237,18.9000182 C21.1876237,20.0581071 20.2415204,21 19.0782546,21 C17.9151719,21 16.9688855,20.0581071 16.9688855,18.9000182 C16.9688855,17.7421116 17.9151719,16.8000365 19.0782546,16.8000365 Z M4.96873607,-5.68434189e-14 C5.29832498,-5.68434189e-14 5.58396871,0.227680304 5.65537967,0.548328574 L5.65537967,0.548328574 L6.15800276,2.7999757 L23.2969928,2.7999757 C23.5181835,2.7999757 23.7254584,2.90333419 23.8587588,3.07833267 C23.9918761,3.25387798 24.0332578,3.48082917 23.9728332,3.69210339 L23.9728332,3.69210339 L21.160158,13.4922006 C21.0750141,13.7929792 20.799075,14.0000608 20.4845006,14.0000608 L20.4845006,14.0000608 L7.78122818,14.0000608 C7.39396119,14.0000608 7.07810515,14.313782 7.07810515,14.7000547 C7.07810515,15.0863274 7.39396119,15.4000486 7.78122818,15.4000486 L7.78122818,15.4000486 L20.4845006,15.4000486 C20.8732325,15.4000486 21.1876237,15.713223 21.1876237,16.1000425 C21.1876237,16.4870444 20.8732325,16.8000365 20.4845006,16.8000365 L20.4845006,16.8000365 L7.78122818,16.8000365 C6.6181455,16.8000365 5.67185909,15.8579613 5.67185909,14.7000547 C5.67185909,13.8385518 6.19645478,13.0982717 6.943523,12.7748891 L6.943523,12.7748891 L4.40440662,1.39998785 L0.703123028,1.39998785 C0.314574337,1.39998785 -1.70530257e-13,1.08699578 -1.70530257e-13,0.699993924 C-1.70530257e-13,0.313174388 0.314574337,-5.68434189e-14 0.703123028,-5.68434189e-14 L0.703123028,-5.68434189e-14 Z" id="Combined-Shape"></path>
                            </g>
                        </g>
                    </g>
                </g>
            </g>
        </g>
    </g>
</svg>