<svg width="28" height="16" viewBox="0 0 28 16" fill="none" xmlns="http://www.w3.org/2000/svg">
<g id="Retail">
<g id="Retail_2">
<path id="Combined Shape" fill-rule="evenodd" clip-rule="evenodd" d="M3.89061 9.50003H10.2423C10.3995 9.50003 10.5375 9.39649 10.5801 9.2461L11.9864 4.34605C12.0166 4.24041 11.9959 4.12694 11.9294 4.03917C11.8627 3.95167 11.7591 3.89999 11.6485 3.89999H3.079L2.82769 2.77416C2.79198 2.61384 2.64916 2.5 2.48437 2.5H0.351562C0.157287 2.5 0 2.65659 0 2.85C0 3.0435 0.157287 3.19999 0.351562 3.19999H2.2022L3.47176 8.88744C3.09823 9.04914 2.83593 9.41928 2.83593 9.85003C2.83593 10.429 3.30907 10.9 3.89061 10.9H4.59383C4.0122 10.9 3.53905 11.3711 3.53905 11.95C3.53905 12.5291 4.0122 13 4.59383 13C5.17537 13 5.64851 12.5291 5.64851 11.95C5.64851 11.3711 5.17537 10.9 4.59383 10.9H9.53913C8.95759 10.9 8.48444 11.3711 8.48444 11.95C8.48444 12.5291 8.95759 13 9.53913 13C10.1208 13 10.5938 12.5291 10.5938 11.95C10.5938 11.3711 10.1208 10.9 9.53913 10.9H10.2423C10.4366 10.9 10.5938 10.7435 10.5938 10.55C10.5938 10.3566 10.4366 10.2 10.2423 10.2H3.89061C3.69698 10.2 3.53905 10.0432 3.53905 9.85003C3.53905 9.65689 3.69698 9.50003 3.89061 9.50003Z" fill="#7D06E3"/>
</g>
<path id="Oval" opacity="0.04" fill-rule="evenodd" clip-rule="evenodd" d="M20 16C24.4183 16 28 12.4183 28 8C28 3.58172 24.4183 0 20 0C15.5817 0 12 3.58172 12 8C12 12.4183 15.5817 16 20 16Z" fill="#7D06E3"/>
</g>
</svg>
