<svg xmlns="http://www.w3.org/2000/svg" width="12" height="12" viewBox="0 0 12 12">
    <g fill="#7D06E3">
        <path d="M4.336 8.354c-.134.12-.336.12-.469 0-.078-.07-.175-.104-.272-.104-.105 0-.21.04-.29.12-.077.077-.12.18-.12.29 0 .108.043.211.12.288l.797.797.796-.797c.078-.077.12-.18.12-.289 0-.11-.042-.212-.12-.29-.153-.152-.4-.16-.562-.015z"/>
        <path d="M7.148 6.14H5.742v-.585c0-.453-.368-.82-.82-.82h-1.64c-.453 0-.821.367-.821.82v.586H1.055C.473 6.14 0 6.614 0 7.195v3.75C0 11.527.473 12 1.055 12h6.093c.582 0 1.055-.473 1.055-1.055v-3.75c0-.581-.473-1.054-1.055-1.054zm-3.984-.585c0-.065.053-.117.117-.117h1.64c.065 0 .118.052.118.117v.586H3.164v-.586zm2.231 3.89L4.35 10.492c-.069.068-.158.103-.248.103s-.18-.035-.249-.103L2.808 9.446c-.21-.21-.326-.49-.326-.787 0-.297.116-.576.326-.787.349-.348.874-.418 1.294-.203.42-.215.945-.144 1.293.203.21.21.326.49.326.787 0 .297-.116.577-.326.787zM9.891 1.383L10.594 1.383 10.594 2.625 9.891 2.625zM8.016 1.383L8.719 1.383 8.719 2.625 8.016 2.625zM7.898.703h2.813c.194 0 .351-.157.351-.351 0-.195-.157-.352-.351-.352H7.898c-.194 0-.351.157-.351.352 0 .194.157.351.351.351z"/>
        <path d="M10.945 3.328h-3.28c-.583 0-1.056.472-1.056 1.055v1.054h.54c.969 0 1.757.79 1.757 1.758v3.867h1.453v.586c0 .195.158.352.352.352.194 0 .351-.157.351-.352v-.592c.528-.058.938-.505.938-1.048V4.383c0-.583-.472-1.055-1.055-1.055z"/>
    </g>
</svg>
