<svg xmlns="http://www.w3.org/2000/svg" width="53" height="40" viewBox="0 0 53 40">
    <g fill="#7D06E3" fill-rule="evenodd">
        <circle cx="33" cy="20" r="20" opacity=".04"/>
        <path fill-rule="nonzero" d="M25.977 30.156l.011-.003s.028 1.946-.282 2.735c0 0-4.746 3.112-12.695 3.112l.004-.181L13 36C5.05 36 .305 32.888.305 32.888c-.31-.789-.282-2.735-.282-2.735-.098-1.4.02-4.23 2.449-4.852 3.26-.837 5.963-2.111 5.963-2.111.534-.743.63-2.298.63-2.298-1.02-1.107-1.473-2.493-1.663-3.666-.067.05-.145.084-.23.081-.307-.006-.717-.459-1.16-2.173-.557-2.158-.034-2.584.471-2.58.117 0 .136-.001.237.03l.002-.048S5.223 7.492 8.828 5.274c0 0-.634-.518-.585-1.263 0 0 1.652.189 3.236.192.72.002 1.425-.035 1.955-.146.211-.044.426-.062.638-.056 1.487.038 2.912 1.207 3.163 2.336 0 0 .022-.002.062-.002.47 0 3.423.227 2.006 6.221l-.003.023c.068-.015.14-.025.213-.026.507-.006 1.034.416.475 2.58-.446 1.73-.86 2.175-1.167 2.174-.102 0-.193-.05-.268-.119-.187 1.183-.64 2.588-1.672 3.708l.054-.004s.085 1.377.54 2.158c.02.01 2.806 1.417 6.054 2.25 2.43.624 2.546 3.456 2.448 4.856z"/>
    </g>
</svg>
