<svg xmlns="http://www.w3.org/2000/svg" width="55" height="40" viewBox="0 0 55 40">
    <g fill="#7D06E3" fill-rule="evenodd">
        <circle cx="35" cy="20" r="20" opacity=".04"/>
        <g fill-rule="nonzero">
            <path d="M24.392 2.416c-3.216-3.221-8.43-3.221-11.646 0-3.216 3.222-3.216 8.445 0 11.667 2.855 2.86 7.283 3.179 10.492.961l3.16 3.165c.583.586 1.53.586 2.114 0 .583-.584.583-1.533 0-2.118l-3.16-3.165c2.213-3.214 1.895-7.65-.96-10.51zm-2.03 9.634c-2.095 2.099-5.491 2.099-7.587 0-2.095-2.1-2.095-5.503 0-7.601 2.095-2.099 5.492-2.099 7.587 0 2.096 2.098 2.096 5.502 0 7.6zM16.021 27.594c-1.205-1.124-4.28-1.832-4.28-1.832v-1.71l.143-.155c.008-.008.823-.909 1.012-1.86l.08-.401.408-.03c.043-.007.526-.085.76-.77l.015-.04c.484-1.113.405-3.089.079-3.23-.183-.077-.14-.42-.057-.758-2.463-1.269-4.306-3.573-4.956-6.34-.344-.07-.736-.123-1.144-.123-.603 0-1.136.114-1.586.34l-.026.012c-.02.008-2.048.923-2.708 2.884-.12.956-.092 3.025.098 3.633 0 0-.28-.15-.448.17-.166.321-.248 3.498.844 4.001l.482.208.053.28c.174.899.549 1.834.788 1.96l.285.154-.002 1.81s-3.51.297-4.967 2.102c-1.456 1.804-.982 4.056.333 4.056h14.545c1.713 0 1.818-2.898.25-4.36z" transform="translate(0 4)"/>
        </g>
    </g>
</svg>
