<svg xmlns="http://www.w3.org/2000/svg" width="56" height="40" viewBox="0 0 56 40">
    <g fill="#7D06E3" fill-rule="evenodd">
        <circle cx="36" cy="20" r="20" opacity=".04"/>
        <g fill-rule="nonzero">
            <path d="M16 4.61c-.552 0-1-.449-1-1V1c0-.552.448-1 1-1s1 .448 1 1v2.61c0 .551-.448 1-1 1zM24.761 8.239c-.256 0-.512-.098-.706-.294-.391-.39-.391-1.024 0-1.414L25.9 4.685c.39-.39 1.024-.39 1.415 0 .39.391.39 1.024 0 1.415l-1.846 1.845c-.196.195-.452.294-.708.294zM31 17h-2.61c-.551 0-1-.448-1-1s.449-1 1-1H31c.552 0 1 .448 1 1s-.448 1-1 1zM26.607 27.607c-.256 0-.512-.098-.707-.294l-1.845-1.845c-.391-.39-.391-1.024 0-1.415.39-.39 1.024-.39 1.414 0l1.846 1.846c.39.39.39 1.024 0 1.414-.196.196-.452.294-.708.294zM5.393 27.607c-.256 0-.512-.098-.706-.294-.391-.39-.391-1.024 0-1.414l1.845-1.846c.39-.39 1.024-.39 1.415 0 .39.391.39 1.024 0 1.415L6.1 27.313c-.196.196-.452.294-.708.294zM3.61 17H1c-.552 0-1-.448-1-1s.448-1 1-1h2.61c.551 0 1 .448 1 1s-.449 1-1 1zM7.239 8.239c-.256 0-.512-.098-.707-.294L4.687 6.1c-.391-.39-.391-1.024 0-1.415.39-.39 1.024-.39 1.414 0l1.846 1.846c.39.39.39 1.024 0 1.414-.198.195-.452.294-.708.294zM20 28v1.667C20 30.947 18.947 32 17.667 32h-3.334C13.213 32 12 31.147 12 29.28V28h8zM21.88 8.747C19.693 6.973 16.813 6.28 14 6.88c-3.533.733-6.4 3.613-7.133 7.147-.747 3.626.613 7.226 3.52 9.426.786.587 1.333 1.494 1.52 2.547v.013C11.933 26 11.973 26 12 26h8c.027 0 .04 0 .067.013V26c.186-1.013.786-1.947 1.706-2.667 2.254-1.786 3.56-4.453 3.56-7.333 0-2.827-1.253-5.467-3.453-7.253zm-.88 7.92c-.547 0-1-.454-1-1C20 13.64 18.36 12 16.333 12c-.546 0-1-.453-1-1 0-.547.454-1 1-1C19.453 10 22 12.547 22 15.667c0 .546-.453 1-1 1z" transform="translate(0 4)"/>
            <path d="M11.907 26H12c-.027 0-.067 0-.093.013V26zM20.067 26v.013C20.04 26 20.027 26 20 26h.067z" transform="translate(0 4)"/>
        </g>
    </g>
</svg>
