<svg xmlns="http://www.w3.org/2000/svg" width="32" height="24" viewBox="0 0 32 24">
    <g fill="#7D06E3" fill-rule="evenodd">
        <circle cx="20" cy="12" r="12" opacity=".04"/>
        <g fill-rule="nonzero">
            <path d="M12.444 0H0v11.781C0 12.453.598 13 1.333 13h11.56c-.28-.34-.449-.761-.449-1.219V0zM1.334 2.031h4.444v2.844H1.333V2.031zm9.777 8.938H1.333v-.813h9.778v.813zm0-2.031H1.333v-.813h9.778v.813zm0-2.032H1.333v-.812h9.778v.812zm0-2.031H6.667v-.813h4.444v.813zm0-2.031H6.667V2.03h4.444v.813zM13.333 4.875h1.334v.813h-1.334v1.218h1.334v.813h-1.334v1.218h1.334v.813h-1.334v1.219h1.334v.812h-1.334c0 .672.598 1.219 1.334 1.219.579 0 1.071-.34 1.255-.813h-.038l.056-.045c.039-.114.06-.235.06-.36V3.25h-2.667v1.625z" transform="translate(0 5)"/>
        </g>
    </g>
</svg>
