<svg xmlns="http://www.w3.org/2000/svg" width="32" height="24" viewBox="0 0 32 24">
    <g fill="#7D06E3" fill-rule="evenodd">
        <circle cx="20" cy="12" r="12" opacity=".04"/>
        <g fill-rule="nonzero">
            <path d="M7.37 16H6.084c-.639 0-1.158-.505-1.158-1.125v-7.75c0-.62.52-1.125 1.158-1.125h1.288c.639 0 1.159.505 1.159 1.125v7.75c0 .62-.52 1.125-1.16 1.125zM2.478 16H1.191c-.64 0-1.16-.505-1.16-1.125v-5.25c0-.62.52-1.125 1.16-1.125h1.287c.64 0 1.159.505 1.159 1.125v5.25c0 .62-.52 1.125-1.159 1.125zM12.264 16h-1.288c-.639 0-1.159-.505-1.159-1.125V4.5H9.11c-.331 0-.622-.181-.76-.473-.139-.292-.091-.624.124-.868l.008-.009L11.236.166C11.334.06 11.473 0 11.62 0c.146 0 .286.06.383.166l2.755 2.984.007.009c.216.244.263.576.125.868-.138.292-.43.473-.76.473h-.708v10.375c0 .62-.52 1.125-1.158 1.125z" transform="translate(0 4)"/>
        </g>
    </g>
</svg>
