<svg xmlns="http://www.w3.org/2000/svg" width="94" height="19" viewBox="0 0 94 19">
    <g fill="#131414">
        <path d="M.138 12.79L1.326 12.596 1.326 1.39 0 1.214.069 0 8.367 0 8.16 3.395 6.508 3.343 6.404 1.214 3.839 1.214 3.839 6.263 4.958 6.263 5.216 5.102 6.37 5.137 6.37 8.62 5.216 8.62 4.941 7.424 3.822 7.424 3.822 12.772 6.404 12.772 6.645 10.45 8.384 10.503 8.522 14.039.086 14.039zM9.297 14.056l.051-1.037.93-.194V5.753l-1.085-.106V4.592l2.72-.405.207.598v.405c.654-.704 1.446-1.126 2.462-1.126 1.48 0 2.582.915 2.582 2.727v6.016l.982.194-.052 1.038h-3.236v-6.72c0-.968-.345-1.513-1.206-1.513-.292 0-.499.052-.723.14-.137.123-.275.3-.396.458v6.439l.982.193-.07 1.038H9.298v-.018zM61.307 14.056l.034-1.037.93-.194V5.753l-1.085-.106V4.592l2.72-.405.207.598v.405c.654-.704 1.446-1.126 2.462-1.126 1.48 0 2.582.915 2.582 2.727v6.016l.981.194-.051 1.038h-3.22v-6.72c0-.968-.344-1.513-1.205-1.513-.292 0-.499.052-.723.14-.138.123-.275.3-.396.458v6.439l.982.193-.07 1.038h-4.148v-.018zM23.276 13.863c-.379.158-1.05.334-1.928.334-1.153 0-2.22-.528-2.22-2.252V5.753l-1.103-.176.052-1.232 1.24-.052.533-1.883 1.584-.07v2.023h1.704l-.12 1.231-1.567.176v6.193c0 .51.276.844.792.844h.93l.103 1.056zM87.716 14.056l.035-1.02.878-.211V5.753l-1.033-.106V4.592l2.823-.405.19.686v.229c.74-.563 1.738-.933 2.943-.933l.414.37-.293 2.674-1.55-.053-.155-1.425c-.361.053-.705.159-.998.37v6.738l.981.21-.069 1.021h-4.166v-.018zM47.172 14.056l.052-1.02.878-.211V5.753l-1.033-.106V4.592l2.823-.405.19.686v.229c.74-.563 1.739-.933 2.944-.933l.413.37-.327 2.674-1.55-.053-.155-1.425c-.361.053-.706.159-.998.37v6.738l.981.21-.069 1.021h-4.149v-.018zM23.965 14.056l.051-1.02.879-.211V5.753l-1.033-.106V4.592l2.823-.405.19.686v.229c.74-.563 1.738-.933 2.926-.933l.413.37-.292 2.674-1.55-.053-.155-1.425c-.361.053-.706.159-.998.37v6.738l.981.21-.069 1.021h-4.166v-.018zM32.883 9.746c0 1.69.723 2.991 2.152 2.991.74 0 1.325-.158 2.014-.493l.396.933c-.706.58-1.739 1.02-3.03 1.02-2.514 0-3.96-2.216-3.96-5.066 0-2.428 1.05-5.085 3.926-5.085 2.513 0 3.46 2.375 3.46 5.014l-.241.634-4.717.052zm-.035-1.126l2.893-.14c-.052-1.18-.293-3.044-1.43-3.044-.275 0-.464.053-.808.229-.465.81-.655 2.27-.655 2.955zM72.893 9.746c0 1.69.723 2.991 2.152 2.991.74 0 1.326-.158 2.014-.493l.396.933c-.706.58-1.739 1.02-3.03 1.02-2.513 0-3.96-2.216-3.96-5.066 0-2.428 1.05-5.085 3.926-5.085 2.513 0 3.46 2.375 3.46 5.014l-.24.634-4.718.052zm-.034-1.126l2.892-.14c-.052-1.18-.293-3.044-1.429-3.044-.275 0-.465.053-.81.229-.464.81-.653 2.27-.653 2.955zM56.09 9.746c0 1.69.723 2.991 2.152 2.991.74 0 1.326-.158 2.014-.493l.396.933c-.705.58-1.738 1.02-3.03 1.02-2.513 0-3.96-2.216-3.96-5.066 0-2.428 1.05-5.085 3.926-5.085 2.513 0 3.46 2.375 3.46 5.014l-.24.634-4.718.052zm-.034-1.126l2.892-.14c-.052-1.18-.293-3.044-1.429-3.044-.275 0-.465.053-.81.229-.464.81-.67 2.27-.653 2.955zM84.359 14.056l-.241-.844c-.637.616-1.257.985-2.22.985-1.482 0-2.807-.756-2.807-2.85v-5.84L78.006 5.4v-.932l3.134-.37.24.845v6.122c0 1.073.431 1.636 1.275 1.636.24 0 .55-.035.826-.14.155-.16.31-.353.43-.546v-6.51l-1.119-.105v-.932l3.168-.37.241.845v7.881l.981.194-.12 1.037h-2.703zM42.541 12.79c-.5 0-.895-.088-1.205-.264v-6.21c.138-.211.293-.405.448-.58.292-.106.55-.142.86-.142 1.292 0 1.515 1.337 1.515 3.73 0 2.305-.344 2.938-.43 3.202-.362.176-.74.264-1.188.264zm3.856-3.888c0-2.973-.86-4.838-3.012-4.838-1.43 0-2.1.844-2.376 1.196v-.334l-.241-.845-2.806.405v1.02l1.084.141v11.998l-.93.194-.051 1.003h4.149l.069-1.003-.982-.194v-3.8c.396.23.947.37 1.55.37 3.512 0 3.546-3.642 3.546-5.313z"/>
    </g>
</svg>
