<svg xmlns="http://www.w3.org/2000/svg" width="40" height="40" viewBox="0 0 40 40">
    <g fill="none" fill-rule="evenodd">
        <rect width="40" height="40" fill="#373737" rx="20"/>
        <path fill="#FFF" fill-rule="nonzero" d="M24.623 11.004L22.225 11c-2.695 0-4.436 1.739-4.436 4.43v2.042h-2.412c-.208 0-.377.165-.377.367v2.96c0 .203.169.367.377.367h2.412v7.467c0 .203.169.367.377.367h3.146c.209 0 .378-.164.378-.367v-7.467h2.82c.208 0 .376-.164.376-.367l.002-2.96c0-.097-.04-.19-.11-.26-.071-.068-.168-.107-.268-.107h-2.82v-1.731c0-.832.203-1.255 1.317-1.255h1.616c.208 0 .377-.165.377-.367V11.37c0-.203-.169-.367-.377-.367z"/>
    </g>
</svg>
