<svg xmlns="http://www.w3.org/2000/svg" width="40" height="40" viewBox="0 0 40 40">
    <g fill="none" fill-rule="evenodd">
        <rect width="40" height="40" fill="#373737" rx="20"/>
        <g fill="#FFF" fill-rule="nonzero">
            <path d="M17.928 4.997c-.042-.903-.196-1.524-.417-2.062-.229-.571-.58-1.082-1.04-1.507-.448-.432-.992-.767-1.589-.98-.571-.209-1.224-.355-2.178-.395C11.742.01 11.437 0 8.998 0 6.56 0 6.254.01 5.296.05c-.954.04-1.61.186-2.178.395-.604.216-1.144.548-1.593.983-.457.425-.81.94-1.036 1.504C.27 3.473.114 4.09.072 4.994.026 5.904.016 6.192.016 8.5s.01 2.596.052 3.503c.042.903.197 1.524.418 2.062.228.571.582 1.082 1.039 1.507.449.432.993.767 1.589.98.572.209 1.225.355 2.179.395.958.04 1.263.05 3.702.05 2.438 0 2.744-.01 3.702-.05.954-.04 1.61-.186 2.178-.395 1.208-.442 2.162-1.345 2.629-2.487.22-.541.375-1.159.417-2.062.042-.907.053-1.195.053-3.503s-.004-2.596-.046-3.503zm-1.617 6.94c-.04.83-.186 1.278-.31 1.577-.301.74-.922 1.328-1.705 1.613-.315.117-.792.256-1.666.292-.948.04-1.232.05-3.628.05-2.397 0-2.684-.01-3.628-.05-.878-.036-1.351-.175-1.667-.292-.39-.136-.744-.352-1.032-.634-.298-.275-.526-.607-.67-.976-.123-.299-.27-.75-.308-1.577-.043-.897-.053-1.166-.053-3.433 0-2.268.01-2.54.053-3.434.038-.83.185-1.278.308-1.577.144-.368.372-.704.674-.976.291-.282.642-.498 1.032-.634.315-.116.793-.256 1.666-.292.948-.04 1.232-.05 3.628-.05 2.4 0 2.684.01 3.628.05.878.036 1.351.176 1.667.292.39.136.744.352 1.032.634.298.276.526.608.67.976.123.3.27.75.309 1.577.042.897.052 1.166.052 3.434 0 2.267-.01 2.533-.052 3.43z" transform="translate(11 11)"/>
            <path d="M8.998 4.134c-2.547 0-4.614 1.955-4.614 4.366 0 2.41 2.067 4.366 4.614 4.366 2.548 0 4.614-1.955 4.614-4.366 0-2.41-2.066-4.366-4.614-4.366zm0 7.198c-1.652 0-2.993-1.268-2.993-2.832 0-1.564 1.34-2.832 2.993-2.832 1.653 0 2.993 1.268 2.993 2.832 0 1.564-1.34 2.832-2.993 2.832zM14.872 3.961c0 .563-.482 1.02-1.077 1.02s-1.077-.457-1.077-1.02.482-1.02 1.077-1.02 1.077.457 1.077 1.02z" transform="translate(11 11)"/>
        </g>
    </g>
</svg>
