<svg xmlns="http://www.w3.org/2000/svg" width="40" height="40" viewBox="0 0 40 40">
    <g fill="none" fill-rule="evenodd">
        <rect width="40" height="40" fill="#373737" rx="20"/>
        <g fill="#FFF" fill-rule="nonzero">
            <path d="M17.995 18H18v-6.602c0-3.23-.695-5.717-4.47-5.717-1.816 0-3.034.995-3.531 1.94h-.053V5.982h-3.58v12.017h3.728v-5.95c0-1.567.297-3.082 2.238-3.082 1.911 0 1.94 1.788 1.94 3.182V18h3.723zM.297 5.983L4.029 5.983 4.029 18 .297 18zM2.162 0C.968 0 0 .968 0 2.162c0 1.193.968 2.181 2.162 2.181 1.193 0 2.161-.988 2.161-2.181C4.323.968 3.354 0 2.161 0z" transform="translate(11 11)"/>
        </g>
    </g>
</svg>
