<svg xmlns="http://www.w3.org/2000/svg" width="22" height="16" viewBox="0 0 22 16">
    <g fill="#7D06E3" fill-rule="evenodd">
        <circle cx="14" cy="8" r="8" opacity=".04"/>
        <path fill-rule="nonzero" d="M4.594 11.4c.581 0 1.055.471 1.055 1.05 0 .58-.474 1.05-1.055 1.05-.582 0-1.055-.47-1.055-1.05 0-.579.473-1.05 1.055-1.05zm4.945 0c.582 0 1.055.471 1.055 1.05 0 .58-.473 1.05-1.055 1.05-.581 0-1.055-.47-1.055-1.05 0-.579.474-1.05 1.055-1.05zM2.484 3c.165 0 .308.114.344.274L3.079 4.4h8.57c.11 0 .214.052.28.14.067.087.088.2.057.306l-1.406 4.9c-.042.15-.18.254-.338.254H3.891c-.194 0-.352.157-.352.35 0 .193.158.35.352.35h6.351c.195 0 .352.157.352.35 0 .194-.157.35-.352.35H3.891c-.582 0-1.055-.471-1.055-1.05 0-.43.262-.8.636-.963L2.202 3.7H.352C.157 3.7 0 3.543 0 3.35 0 3.157.157 3 .352 3z"/>
    </g>
</svg>
