<svg xmlns="http://www.w3.org/2000/svg" width="18" height="14" viewBox="0 0 18 14">
    <path fill="#FFF" d="M18 1.657c-.67.281-1.383.468-2.126.558.765-.437 1.349-1.124 1.623-1.952-.713.407-1.5.694-2.34.855C14.48.428 13.515 0 12.462 0c-2.043 0-3.688 1.587-3.688 3.533 0 .28.025.55.085.806-3.067-.143-5.782-1.55-7.606-3.695C.935 1.173.748 1.778.748 2.43c0 1.223.658 2.307 1.64 2.935-.594-.01-1.175-.175-1.668-.435v.039C.72 6.686 2 8.11 3.677 8.439c-.3.08-.628.117-.968.117-.236 0-.475-.013-.699-.06.479 1.399 1.835 2.427 3.449 2.46-1.256.94-2.85 1.507-4.576 1.507-.302 0-.593-.013-.883-.048C1.635 13.424 3.572 14 5.661 14c6.79 0 10.503-5.385 10.503-10.052 0-.156-.006-.307-.014-.457.733-.497 1.348-1.119 1.85-1.834z"/>
</svg>
