<svg xmlns="http://www.w3.org/2000/svg" width="40" height="40" viewBox="0 0 40 40">
    <g fill="none" fill-rule="evenodd">
        <rect width="40" height="40" fill="#373737" rx="20"/>
        <path fill="#FFF" fill-rule="nonzero" d="M29 14.657c-.67.281-1.383.468-2.126.558.765-.437 1.349-1.124 1.623-1.952-.713.407-1.5.694-2.34.855-.677-.69-1.642-1.118-2.695-1.118-2.043 0-3.688 1.587-3.688 3.533 0 .28.025.55.085.806-3.067-.143-5.782-1.55-7.606-3.695-.318.529-.505 1.134-.505 1.786 0 1.223.658 2.307 1.64 2.935-.594-.01-1.175-.175-1.668-.435v.039c0 1.717 1.28 3.142 2.957 3.47-.3.08-.628.117-.968.117-.236 0-.475-.013-.699-.06.479 1.399 1.835 2.427 3.449 2.46-1.256.94-2.85 1.507-4.576 1.507-.302 0-.593-.013-.883-.048C12.635 26.424 14.572 27 16.661 27c6.79 0 10.503-5.385 10.503-10.052 0-.156-.006-.307-.014-.457.733-.497 1.348-1.119 1.85-1.834z"/>
    </g>
</svg>
