<svg xmlns="http://www.w3.org/2000/svg" width="32" height="24" viewBox="0 0 32 24">
    <g fill="#7D06E3" fill-rule="evenodd">
        <circle cx="20" cy="12" r="12" opacity=".04"/>
        <g fill-rule="nonzero">
            <path d="M16 10.828c0-1.985-1.139-3.757-2.845-4.62-.053 3.808-3.14 6.894-6.946 6.947C7.07 14.861 8.843 16 10.829 16c.93 0 1.835-.248 2.63-.719l2.518.696-.696-2.517c.471-.796.719-1.701.719-2.632z" transform="translate(0 4)"/>
            <path d="M12.219 6.11c0-3.37-2.74-6.11-6.11-6.11C2.741 0 0 2.74 0 6.11c0 1.097.292 2.166.847 3.105l-.825 2.981 2.982-.824c.939.555 2.007.847 3.105.847 3.37 0 6.11-2.74 6.11-6.11zM5.172 4.686h-.938c0-1.033.841-1.875 1.875-1.875s1.875.842 1.875 1.876c0 .524-.222 1.029-.61 1.383l-.796.73v.73h-.937V6.387l1.1-1.007c.197-.18.306-.426.306-.692 0-.517-.42-.938-.938-.938-.517 0-.937.42-.937.938zM5.64 8.47h.937v.937h-.937V8.47z" transform="translate(0 4)"/>
        </g>
    </g>
</svg>
